# xmcd CD database file
#
# Track frame offsets:
#	150
#	17990
#	44942
#	65380
#	85242
#	112147
#	131352
#	146460
#	162297
#	181197
#	199277
#	217875
#
# Disc length: 3071 seconds
#
# Revision: 0
# Processed by: cddbd v1.5.1PL0 Copyright (c) Steve Scherf et al.
# Submitted via: CDex 1.51
#
DISCID=b00bfd0c
DTITLE=Various Artist - Welcome to the World of Great Latin Sounds
DYEAR=1900
DGENRE=Jazz
TTITLE0=Cape Town/ George Salta
TTITLE1=Sedona/ Tony White
TTITLE2=Sola/ Obo and Jorge
TTITLE3=Pajaro Campana/ Obo and Jorge
TTITLE4=Mercer Street/ Tony White
TTITLE5=La Feria/ George Salta
TTITLE6=Luna/ Obo and Jorge
TTITLE7=Bossarosa/ Obo
TTITLE8=Let's Go To Spain/ Obo and Jorge
TTITLE9=Nuevo Sol/ Obo and Jorge
TTITLE10=Salsa Taranka/ Obo and Jorge
TTITLE11=Fiesta Gitana/ Obo and Jorge
EXTD=
EXTT0=
EXTT1=
EXTT2=
EXTT3=
EXTT4=
EXTT5=
EXTT6=
EXTT7=
EXTT8=
EXTT9=
EXTT10=
EXTT11=
PLAYORDER=
